<?xml version="1.0" encoding="utf-8"?>
<!-- Generator: Adobe Illustrator 25.2.2, SVG Export Plug-In . SVG Version: 6.00 Build 0)  -->
<svg version="1.1" id="NewOrbit-logo-light" xmlns="http://www.w3.org/2000/svg" xmlns:xlink="http://www.w3.org/1999/xlink"
	 x="0px" y="0px" viewBox="0 0 1123.4 216.9" style="enable-background:new 0 0 1123.4 216.9;" xml:space="preserve">
<style type="text/css">
	.st0{enable-background:new    ;}
	.st1{fill:#FE8B36;}
	.st2{fill:#C8C8C8;}
	.st3{fill-rule:evenodd;clip-rule:evenodd;fill:#C8C8C8;}
	.st4{fill-rule:evenodd;clip-rule:evenodd;fill:#FE8B36;}
</style>
<g class="st0">
	<path class="st1" d="M325.6,148.9v-57c0-9.8-2.4-17.3-7.1-22.4c-4.7-5.1-12.1-7.7-22.2-7.7c-6.9,0-12.3,0.6-16.4,1.9
		c-4,1.3-6.6,2.2-7.7,2.7v82.4h-20.8V53.1c0.5-0.3,2-0.9,4.4-1.8c2.4-0.9,5.7-2,9.7-3c4-1.1,8.8-2,14.1-2.8
		c5.4-0.8,11.3-1.2,17.8-1.2c7.4,0,14.1,1,20.2,2.9c6.1,2,11.2,4.7,15.5,8.4c4.2,3.6,7.5,8,9.8,13.1c2.3,5.1,3.4,10.9,3.4,17.4v62.8
		H325.6z"/>
	<path class="st1" d="M469.8,83c0,7.8-2.2,13.9-6.5,18.4c-4.3,4.4-11.6,6.7-22,6.7h-47.3c1.2,8.5,4.7,15,10.6,19.6
		c5.9,4.6,13.8,6.9,23.7,6.9c7.7,0,14-0.8,18.9-2.3c4.9-1.5,8.2-2.9,10-3.9l6.5,15.1c-0.7,0.4-2.1,1.1-4.1,2.1c-2.1,1-4.8,2-8.1,2.9
		c-3.3,0.9-7.1,1.8-11.5,2.5c-4.4,0.7-9.1,1.1-14.2,1.1c-7.5,0-14.6-1.1-21.1-3.2c-6.5-2.2-12.2-5.4-17.1-9.7
		c-4.8-4.3-8.7-9.8-11.4-16.4c-2.8-6.6-4.1-14.3-4.1-23c0-8.2,1.3-15.7,3.9-22.5c2.6-6.8,6.3-12.7,11-17.6
		c4.7-4.9,10.3-8.7,16.8-11.4c6.5-2.7,13.6-4,21.4-4c7.3,0,13.7,1,19.3,2.9c5.6,2,10.2,4.6,13.9,8.1c3.7,3.4,6.5,7.5,8.5,12.2
		C468.8,72.2,469.8,77.4,469.8,83z M449.8,81c0-2.6-0.4-5.1-1.3-7.7c-0.9-2.6-2.3-4.8-4.3-6.9c-2-2-4.6-3.7-7.8-4.9
		c-3.2-1.3-7-1.9-11.4-1.9c-5.1,0-9.6,1-13.5,3.1c-3.9,2.1-7.2,4.7-9.8,8c-2.6,3.2-4.6,6.8-6,10.8c-1.3,4-2.1,7.9-2.2,11.8h42.6
		c4.8,0,8.3-0.9,10.5-2.6C448.7,89,449.8,85.7,449.8,81z"/>
	<path class="st1" d="M483.7,69.5c-0.7-1.9-1.3-3.9-2-6.1c-0.7-2.2-1-4.2-1-6.1c0-2.7,0.8-5,2.4-7c1.6-2,4.4-2.9,8.5-2.9
		c2.7,0,4.8,0.3,6.4,0.8c1.5,0.5,2.5,0.9,2.7,1c1.9,7.1,4,14.5,6.3,22c2.3,7.5,4.5,14.8,6.8,21.9c2.2,7.1,4.3,13.6,6.4,19.7
		s3.8,11.2,5.3,15.4c2.7-8.1,5.8-17.8,9.2-29.1c3.4-11.3,7.4-25,12-41.2c1.1-3.9,2.6-6.6,4.6-8.2c2-1.5,4.9-2.3,8.7-2.3
		c2.8,0,5.1,0.3,6.8,0.9c1.7,0.6,2.8,1.1,3.3,1.5c2,7.1,4.1,14.5,6.3,22c2.2,7.5,4.3,14.8,6.5,21.7c2.2,6.9,4.2,13.4,6.1,19.4
		c1.9,6,3.5,11.1,4.8,15.3c1.6-4.3,3.5-9.7,5.6-16.1c2.1-6.4,4.2-13,6.4-19.9c2.2-6.9,4.2-13.5,6.3-19.8c2-6.3,3.6-11.6,4.8-16
		c0.9-3,2.3-5.2,3.9-6.8c1.7-1.5,4.4-2.3,8.2-2.3c3.1,0,5.6,0.6,7.6,1.7c2,1.1,3.1,1.9,3.3,2.1c-1.1,4.4-2.9,10.6-5.5,18.5
		c-2.6,7.9-5.5,16.4-8.9,25.6c-3.4,9.2-6.9,18.5-10.6,27.9c-3.7,9.4-7.2,18-10.4,25.7h-22.4c-1.1-3-2.7-7.6-4.7-13.9
		c-2.1-6.3-4.3-13.1-6.6-20.3c-2.3-7.2-4.5-14.3-6.8-21.3c-2.2-7-3.9-12.8-5.2-17.4c-1.2,4.8-2.9,10.8-4.9,17.9
		c-2.1,7.1-4.3,14.2-6.6,21.4c-2.3,7.2-4.4,13.9-6.5,20.1c-2,6.2-3.6,10.7-4.6,13.5h-22.2c-3.2-7.8-6.5-16.1-9.9-24.9
		c-3.4-8.8-6.5-17-9.3-24.6c-2.8-7.6-5.3-14.1-7.3-19.6C485.4,74.2,484.1,70.8,483.7,69.5z"/>
</g>
<g class="st0">
	<path class="st2" d="M760.8,98.2c0,7.7-1.3,14.8-3.9,21.4c-2.6,6.6-6.3,12.3-11,17.1c-4.7,4.8-10.4,8.6-17,11.3
		c-6.6,2.8-13.9,4.1-21.8,4.1c-7.9,0-15.3-1.4-21.9-4.1s-12.4-6.5-17.1-11.3c-4.7-4.8-8.4-10.5-11-17.1c-2.6-6.6-3.9-13.7-3.9-21.4
		s1.3-14.8,3.9-21.4c2.6-6.6,6.3-12.3,11-17.1c4.7-4.8,10.4-8.6,17.1-11.3c6.7-2.8,14-4.1,21.9-4.1c7.9,0,15.2,1.4,21.8,4.1
		c6.6,2.8,12.3,6.5,17,11.3c4.7,4.8,8.4,10.5,11,17.1C759.5,83.4,760.8,90.5,760.8,98.2z M739.2,98.2c0-5.4-0.7-10.3-2.2-14.8
		c-1.5-4.5-3.6-8.4-6.4-11.7c-2.8-3.3-6.1-5.9-10.1-7.7c-4-1.8-8.5-2.7-13.4-2.7c-5.1,0-9.7,0.9-13.6,2.7c-4,1.8-7.3,4.4-10.1,7.7
		c-2.8,3.3-4.9,7.2-6.4,11.7c-1.5,4.5-2.2,9.5-2.2,14.8c0,5.4,0.7,10.3,2.2,14.8c1.5,4.5,3.6,8.4,6.4,11.7c2.8,3.3,6.1,5.9,10.1,7.7
		c4,1.8,8.5,2.7,13.6,2.7c5,0,9.5-0.9,13.4-2.7c4-1.8,7.3-4.4,10.1-7.7c2.8-3.3,4.9-7.2,6.4-11.7
		C738.5,108.5,739.2,103.6,739.2,98.2z"/>
	<path class="st2" d="M829.5,61.8c-3.4,0-6.3,0.2-8.9,0.7c-2.6,0.5-4.7,1-6.6,1.6c-1.8,0.6-3.3,1.2-4.3,1.8c-1.1,0.6-1.8,1-2.2,1.3
		v81.6h-20.8V56.6c0.4-0.4,1.6-1.2,3.7-2.5c2.1-1.3,4.9-2.6,8.5-4c3.6-1.4,7.8-2.7,12.6-3.8c4.8-1.1,10.3-1.7,16.4-1.7
		c5.4,0,9.8,0.3,13.2,1c3.4,0.7,6.2,1.5,8.2,2.6c3.8,1.9,5.7,4.6,5.7,8.3c0,2.6-0.5,4.7-1.6,6.5c-1.1,1.8-2,3-2.8,3.6
		c-1.3-0.9-4-2-7.9-3C838.7,62.4,834.4,61.8,829.5,61.8z"/>
	<path class="st2" d="M870.3,9.5c0-6.3,3.7-9.5,11.1-9.5c2.2,0,4.1,0.3,6,0.8c1.8,0.5,3.1,0.9,3.7,1.2v58.6c0.5-0.8,1.5-2.1,3-3.8
		c1.5-1.7,3.6-3.5,6.3-5.4c2.7-1.8,6-3.4,10-4.7c4-1.3,8.7-2,14.2-2c6.7,0,13,1.1,18.7,3.4c5.7,2.3,10.7,5.6,14.9,10
		c4.2,4.4,7.6,9.8,10,16.2c2.4,6.4,3.6,13.6,3.6,21.7c0,8.5-1.3,16.2-3.9,23c-2.6,6.9-6.6,12.7-11.8,17.6
		c-5.3,4.8-11.9,8.6-19.8,11.2c-7.9,2.6-17.2,3.9-27.9,3.9c-5.3,0-10.1-0.1-14.5-0.4c-4.4-0.3-8.4-0.6-11.7-0.9
		c-3.4-0.3-6.1-0.6-8.1-0.9c-2-0.3-3.3-0.5-3.8-0.6V9.5z M950.1,97.6c0-11-2.6-19.7-7.7-26.1c-5.1-6.3-12.5-9.5-22.2-9.5
		c-4.8,0-9.1,0.8-12.7,2.5c-3.6,1.7-6.7,4-9.1,7.1c-2.4,3-4.2,6.6-5.5,10.6s-1.8,8.4-1.8,13.1v37.8c1.1,0.4,3.2,0.9,6.5,1.4
		c3.2,0.5,7.7,0.8,13.5,0.8c6.9,0,12.8-0.9,17.7-2.7c4.9-1.8,9-4.4,12.1-7.8c3.2-3.4,5.5-7.4,7-12
		C949.4,108.2,950.1,103.1,950.1,97.6z"/>
	<path class="st2" d="M1022.6,12.7c0,3.5-1.3,6.5-3.8,9c-2.6,2.5-5.7,3.7-9.3,3.7c-3.5,0-6.5-1.2-9.1-3.7c-2.6-2.5-3.8-5.5-3.8-9
		c0-3.5,1.3-6.5,3.8-9c2.6-2.5,5.6-3.7,9.1-3.7c3.6,0,6.7,1.2,9.3,3.7C1021.3,6.2,1022.6,9.2,1022.6,12.7z M999.2,57
		c0-3.4,1-5.8,2.9-7.3c2-1.5,4.7-2.2,8.2-2.2c2.3,0,4.3,0.2,6.2,0.7c1.8,0.5,3.1,0.8,3.7,1.1v99.6h-21V57z"/>
	<path class="st2" d="M1079.6,64.8V117c0,6.7,1.5,11.3,4.4,13.8c3,2.5,7,3.7,12.1,3.7c2.2,0,4.2-0.2,6.1-0.7c1.9-0.5,3.6-1,5-1.7
		c1.5-0.7,2.7-1.3,3.6-1.9c0.9-0.6,1.6-1,2-1.3l8.1,12.9c-0.5,0.4-1.5,1.2-3,2.3c-1.5,1.1-3.4,2.3-5.9,3.3c-2.4,1.1-5.4,2.1-8.8,2.9
		c-3.4,0.9-7.3,1.3-11.6,1.3c-5.8,0-10.8-0.8-14.9-2.4c-4.2-1.6-7.6-3.9-10.3-6.8c-2.7-2.9-4.7-6.3-6-10.2
		c-1.3-3.9-1.9-8.1-1.9-12.7V64.8h-9.3c-6.5,0-9.7-2.9-9.7-8.7c0-2.2,0.3-4,1-5.6c0.7-1.5,1.1-2.6,1.4-3.1h16.6v-22
		c0-3.2,1-5.6,2.9-7.2c2-1.5,4.7-2.3,8.2-2.3c2.3,0,4.3,0.3,6.2,0.8c1.8,0.5,3.1,0.9,3.7,1.2v29.5h25.9c6.3,0,9.5,2.9,9.5,8.7
		c0,2.2-0.3,4-0.9,5.6c-0.6,1.5-1,2.6-1.3,3.1H1079.6z"/>
</g>
<path id="Oval-5" class="st3" d="M88.2,206.4c8.9-6.5,15.7-15.4,19.4-25.8c38,7.3,74.7-17.5,82-55.5s-17.5-74.7-55.5-82
	s-74.7,17.5-82,55.5c-0.5,2.8-0.9,5.6-1.1,8.4c-11,0.9-21.4,5.2-29.9,12.1c-0.2-2.4-0.3-4.9-0.3-7.3c0-55.2,44.8-99.9,100-99.9
	s99.9,44.8,99.9,100s-44.8,99.9-100,99.9C109.6,211.9,98.6,210,88.2,206.4z"/>
<path id="Oval-2-Copy-2" class="st4" d="M55.9,216.9c-30.4,0-55-24.6-55-55s24.6-55,55-55s55,24.6,55,55S86.3,216.9,55.9,216.9
	L55.9,216.9z M55.9,201.9c22.1,0,40-17.9,40-40s-17.9-40-40-40s-40,17.9-40,40S33.8,201.9,55.9,201.9z"/>
<circle id="Oval-3" class="st2" cx="55.9" cy="161.9" r="25"/>
<circle id="Oval-3-Copy" class="st1" cx="141.9" cy="89.9" r="25"/>
<path id="more-than-software" class="st3" d="M671.1,184c1.9,0,3.8,0.3,5.5,1.1c1.6,0.7,3,1.9,3.9,3.4c0.8-1.4,2-2.5,3.5-3.2
	c1.6-0.9,3.4-1.3,5.2-1.2c1.3,0,2.6,0.2,3.9,0.6c1.2,0.3,2.2,0.9,3.2,1.7c0.9,0.8,1.6,1.7,2.1,2.8c0.5,1.3,0.8,2.6,0.8,4v15.8h-5
	v-14.1c0-2.3-0.5-4-1.5-5c-1.1-1.1-2.7-1.7-4.2-1.6c-1.6-0.1-3.2,0.6-4.4,1.8c-1.1,1.2-1.7,3-1.7,5.5v13.4h-4.9v-13.7
	c0-2.5-0.6-4.2-1.7-5.4c-1.3-1.2-3-1.8-4.7-1.7c-1.2,0-2.5,0.1-3.7,0.4c-0.6,0.2-1.1,0.4-1.6,0.6v19.6h-4.9v-22.8l1-0.4
	c0.7-0.3,1.4-0.5,2.1-0.7C666.3,184.3,668.7,184,671.1,184L671.1,184z M730.9,196.8c0,1.7-0.3,3.5-0.9,5.1c-0.6,1.5-1.5,2.9-2.6,4.1
	c-1.1,1.2-2.5,2.1-4,2.7c-1.6,0.7-3.4,1-5.2,1c-1.8,0-3.6-0.3-5.2-1c-1.5-0.6-2.9-1.5-4.1-2.7c-1.1-1.2-2-2.5-2.6-4.1
	c-1.3-3.3-1.3-6.9,0-10.2c0.6-1.5,1.5-2.9,2.6-4.1c1.2-1.2,2.6-2.1,4.1-2.7c1.7-0.7,3.4-1,5.2-1c1.8,0,3.5,0.3,5.2,1
	c3.1,1.2,5.5,3.7,6.7,6.7C730.7,193.4,731,195.1,730.9,196.8L730.9,196.8z M725.8,196.8c0-1.2-0.2-2.4-0.5-3.5c-0.3-1-0.8-2-1.5-2.8
	c-0.7-0.8-1.5-1.4-2.4-1.8c-1-0.4-2.1-0.7-3.2-0.6c-1.1,0-2.2,0.2-3.2,0.6c-0.9,0.4-1.8,1-2.4,1.8c-0.7,0.8-1.2,1.8-1.5,2.8
	c-0.7,2.3-0.7,4.8,0,7.1c0.3,1,0.8,2,1.5,2.8c0.7,0.8,1.5,1.4,2.4,1.8c1,0.5,2.1,0.7,3.2,0.6c1.1,0,2.2-0.2,3.2-0.6
	c0.9-0.4,1.7-1,2.4-1.8c0.7-0.8,1.2-1.8,1.5-2.8C725.6,199.2,725.8,198,725.8,196.8L725.8,196.8z M747.4,188.2c-0.7,0-1.4,0-2.1,0.2
	c-0.5,0.1-1,0.2-1.6,0.4c-0.3,0.1-0.7,0.3-1,0.4l-0.5,0.3v19.4h-5v-21.9c0.3-0.2,0.6-0.4,0.9-0.6c0.6-0.4,1.3-0.7,2-1
	c1-0.4,2-0.7,3-0.9c1.3-0.3,2.6-0.4,3.9-0.4c1.1,0,2.1,0.1,3.1,0.2c0.7,0.1,1.3,0.3,1.9,0.6c0.8,0.3,1.4,1.1,1.3,2
	c0,0.5-0.1,1.1-0.4,1.5c-0.2,0.3-0.4,0.6-0.7,0.9c-0.6-0.3-1.2-0.6-1.9-0.7C749.5,188.3,748.4,188.2,747.4,188.2L747.4,188.2z
	 M778.7,193.2c0.1,1.6-0.5,3.2-1.5,4.4c-1,1.1-2.8,1.6-5.2,1.6h-11.2c0.2,1.8,1.1,3.5,2.5,4.7c1.6,1.2,3.6,1.7,5.6,1.6
	c1.5,0,3-0.1,4.5-0.6c0.8-0.2,1.6-0.5,2.4-0.9l1.5,3.6c-0.2,0.1-0.5,0.3-1,0.5c-0.6,0.3-1.3,0.5-1.9,0.7c-0.8,0.2-1.7,0.4-2.7,0.6
	c-1.1,0.2-2.2,0.3-3.4,0.3c-1.7,0-3.4-0.2-5-0.8c-1.5-0.5-2.9-1.3-4-2.3c-1.2-1.1-2.1-2.4-2.7-3.9c-0.7-1.7-1-3.6-1-5.5
	c0-1.8,0.3-3.6,0.9-5.4c0.6-1.6,1.5-3,2.6-4.2c1.1-1.2,2.5-2.1,4-2.7c1.6-0.7,3.3-1,5.1-1c1.6,0,3.1,0.2,4.6,0.7
	c1.2,0.4,2.4,1.1,3.3,1.9c0.9,0.8,1.6,1.8,2,2.9C778.5,190.6,778.7,191.9,778.7,193.2L778.7,193.2z M773.9,192.7
	c0-0.6-0.1-1.2-0.3-1.8c-0.2-0.6-0.5-1.2-1-1.6c-0.5-0.5-1.2-0.9-1.8-1.2c-0.9-0.3-1.8-0.5-2.7-0.5c-1.1,0-2.2,0.2-3.2,0.7
	c-0.9,0.5-1.7,1.1-2.3,1.9c-0.6,0.8-1.1,1.6-1.4,2.6c-0.3,0.9-0.5,1.9-0.5,2.8h10.1c0.9,0.1,1.8-0.1,2.5-0.6
	C773.8,194.4,774,193.6,773.9,192.7L773.9,192.7z M802.4,188.9v12.4c-0.1,1.2,0.2,2.4,1.1,3.3c0.8,0.6,1.8,0.9,2.9,0.9
	c0.5,0,1-0.1,1.4-0.2c0.4-0.1,0.8-0.2,1.2-0.4c0.3-0.1,0.6-0.3,0.9-0.4c0.2-0.1,0.4-0.2,0.5-0.3l1.9,3.1l-0.7,0.6
	c-0.4,0.3-0.9,0.6-1.4,0.8c-0.7,0.3-1.4,0.5-2.1,0.7c-0.9,0.2-1.8,0.3-2.8,0.3c-1.2,0-2.4-0.2-3.5-0.6c-0.9-0.3-1.8-0.9-2.5-1.6
	c-0.6-0.7-1.1-1.5-1.4-2.4c-0.3-1-0.5-2-0.5-3v-13h-2.2c-1.5,0-2.3-0.7-2.3-2.1c0-0.5,0.1-0.9,0.2-1.3c0.2-0.4,0.3-0.6,0.3-0.7h3.9
	v-5.2c-0.1-0.7,0.2-1.3,0.7-1.7c0.6-0.4,1.2-0.6,1.9-0.6c0.5,0,1,0.1,1.5,0.2c0.4,0.1,0.7,0.2,0.9,0.3v7h6.2c1.5,0,2.2,0.7,2.2,2.1
	c0,0.4-0.1,0.9-0.2,1.3c-0.2,0.4-0.2,0.6-0.3,0.8L802.4,188.9z M820.4,187.6c0.3-0.4,0.6-0.7,0.9-1.1c0.5-0.5,1-0.9,1.6-1.2
	c0.7-0.4,1.5-0.8,2.4-1c1.1-0.3,2.2-0.4,3.3-0.4c2.6-0.1,5.1,0.8,7,2.5c1.8,1.6,2.6,4.1,2.6,7.3v15.1h-4.9v-14
	c0.1-1.7-0.4-3.5-1.4-4.9c-0.9-1.2-2.5-1.7-4.7-1.7c-1,0-2.1,0.2-3,0.6c-0.8,0.4-1.5,0.9-2.1,1.6c-0.6,0.7-1,1.5-1.3,2.4
	c-0.3,1-0.4,2-0.4,3v13.1h-4.9v-33.1c0-1.5,0.9-2.3,2.6-2.3c0.5,0,1,0.1,1.4,0.2c0.4,0.1,0.7,0.2,0.9,0.3V187.6z M861.5,197.6
	c-0.2-0.1-0.5-0.1-0.7-0.1l-1.4-0.1c-0.5,0-1.1-0.1-1.8-0.1s-1.2,0-1.8,0c-2.4,0-4.1,0.4-5.2,1.1c-1.1,0.8-1.7,2.1-1.6,3.4
	c0,0.6,0.1,1.2,0.3,1.8c0.2,0.6,0.6,1,1.1,1.4c0.6,0.4,1.3,0.7,2.1,0.9c1.1,0.2,2.2,0.3,3.3,0.3c1.3,0,2.6,0,3.8-0.2
	c0.6-0.1,1.3-0.2,1.9-0.3L861.5,197.6z M854.3,187.8c-0.8,0-1.7,0.1-2.5,0.2c-0.6,0.1-1.3,0.3-1.9,0.6c-0.5,0.2-0.9,0.4-1.3,0.7
	l-0.9,0.6c-0.4-0.3-0.7-0.6-0.9-1c-0.3-0.4-0.4-0.9-0.4-1.4c0-0.5,0.1-1,0.5-1.4c0.3-0.4,0.8-0.7,1.2-0.9c0.7-0.3,1.5-0.6,2.3-0.7
	c1.2-0.3,2.4-0.4,3.6-0.4c1.7,0,3.5,0.2,5.2,0.5c1.4,0.3,2.8,0.9,3.9,1.8c1.1,0.8,1.9,1.9,2.5,3.2c0.6,1.5,0.9,3.2,0.9,4.8v14.4
	c-0.6,0.1-1.8,0.3-3.6,0.5c-2.4,0.2-4.8,0.3-7.2,0.3c-2,0-3.9-0.2-5.8-0.6c-1.3-0.3-2.5-0.9-3.5-1.7c-0.8-0.6-1.4-1.5-1.7-2.5
	c-0.3-0.9-0.4-1.9-0.4-2.9c0-1.1,0.2-2.3,0.6-3.4c0.4-1,1-1.9,1.9-2.5c1-0.7,2.2-1.3,3.4-1.6c1.7-0.4,3.5-0.6,5.2-0.6
	c1.4,0,2.8,0,3.9,0.1s1.9,0.1,2.3,0.2v-0.2c0-0.5,0-1-0.1-1.4c-0.2-1.4-0.9-2.6-2.1-3.4C857.8,188.1,856,187.7,854.3,187.8
	L854.3,187.8z M891.5,208.8v-13.5c0.1-1.9-0.5-3.8-1.7-5.3c-1.1-1.2-2.9-1.8-5.3-1.8c-1.3,0-2.6,0.1-3.9,0.4
	c-0.6,0.2-1.2,0.4-1.8,0.6v19.6h-4.9v-22.8l1.1-0.4c0.6-0.2,1.3-0.5,2.3-0.7c1.1-0.3,2.2-0.5,3.4-0.7c1.4-0.2,2.8-0.3,4.2-0.3
	c1.6,0,3.2,0.2,4.8,0.7c1.3,0.4,2.6,1.1,3.7,2c1,0.9,1.8,1.9,2.3,3.1c0.6,1.3,0.8,2.7,0.8,4.1v14.9L891.5,208.8z M924.5,187.8
	c-1.5-0.1-3.1,0.2-4.4,0.9c-0.8,0.5-1.3,1.5-1.3,2.4c0,0.8,0.4,1.6,1.1,2c1,0.5,2.2,0.9,3.3,1l4.1,0.6c3.1,0.4,5.3,1.2,6.5,2.4
	c1.3,1.2,2,2.8,2,4.6c0,2.2-0.9,4.3-2.7,5.6c-1.8,1.5-4.5,2.2-8.2,2.2c-1.5,0-3.1-0.1-4.6-0.4c-1.2-0.2-2.3-0.5-3.5-0.9
	c-0.8-0.3-1.6-0.6-2.3-1c-0.6-0.3-0.9-0.6-1-0.6l2-3.4c0.1,0.1,0.4,0.3,0.9,0.6c0.6,0.3,1.3,0.6,1.9,0.9c2.1,0.8,4.3,1.1,6.5,1.1
	c1.4,0.1,2.9-0.2,4.2-0.7c1-0.4,1.5-1.4,1.5-2.5c0-0.9-0.4-1.7-1.1-2.1c-1.2-0.6-2.5-1-3.9-1.1l-3.3-0.5c-2.2-0.2-4.4-1-6.2-2.2
	c-1.5-1.2-2.3-3-2.2-4.9c0-1,0.2-1.9,0.5-2.8c0.4-0.9,1-1.7,1.8-2.4c1-0.8,2-1.3,3.2-1.7c1.6-0.4,3.3-0.7,4.9-0.6
	c1.8-0.1,3.5,0.1,5.3,0.5c1,0.2,2,0.6,2.9,1c1.3,0.7,2,1.5,2,2.4c0,0.6-0.2,1.1-0.5,1.6c-0.3,0.4-0.7,0.7-1.1,0.9
	c-0.1-0.1-0.3-0.2-0.7-0.6c-0.5-0.4-1-0.7-1.6-0.9c-0.8-0.4-1.7-0.7-2.5-0.9C927,187.9,925.7,187.8,924.5,187.8L924.5,187.8z
	 M966,196.8c0,1.7-0.3,3.5-0.9,5.1c-0.6,1.5-1.5,2.9-2.6,4.1c-1.1,1.2-2.5,2.1-4,2.7c-1.6,0.7-3.4,1-5.2,1c-1.8,0-3.6-0.3-5.2-1
	c-3.1-1.2-5.5-3.7-6.7-6.7c-1.2-3.3-1.2-6.9,0-10.2c1.2-3.1,3.6-5.5,6.6-6.7c1.7-0.7,3.4-1,5.2-1c1.8,0,3.5,0.3,5.2,1
	c1.5,0.6,2.9,1.5,4,2.7c1.1,1.2,2,2.5,2.6,4.1C965.7,193.4,966,195.1,966,196.8L966,196.8z M960.8,196.8c0-1.2-0.2-2.4-0.5-3.5
	c-0.3-1-0.8-2-1.5-2.8c-0.6-0.8-1.5-1.4-2.4-1.8c-1-0.4-2.1-0.7-3.2-0.6c-1.1,0-2.2,0.2-3.2,0.6c-0.9,0.4-1.7,1-2.4,1.8
	c-0.7,0.8-1.2,1.8-1.5,2.8c-0.7,2.3-0.7,4.8,0,7.1c0.3,1,0.8,2,1.5,2.8c0.7,0.8,1.5,1.5,2.4,1.9c1,0.5,2.1,0.7,3.2,0.6
	c1.1,0,2.2-0.2,3.2-0.6c0.9-0.4,1.7-1,2.4-1.8c0.7-0.8,1.2-1.8,1.5-2.8C960.7,199.2,960.9,198,960.8,196.8L960.8,196.8z
	 M971.4,188.9c-1.5,0-2.3-0.7-2.3-2.1c0-0.5,0.1-0.9,0.2-1.3l0.3-0.7h3.9v-2.3c0-1.3,0.2-2.7,0.7-3.9c0.4-1.1,1.1-2,1.9-2.8
	c0.8-0.8,1.8-1.3,2.9-1.7c1.2-0.4,2.5-0.6,3.7-0.6c1.2,0,2.4,0.1,3.6,0.4c0.6,0.2,1.1,0.4,1.6,0.6c0.4,0.2,0.7,0.4,1,0.7
	c0.3,0.4,0.5,0.9,0.5,1.4c0,0.5-0.1,1-0.4,1.4c-0.2,0.4-0.5,0.7-0.8,1c-0.5-0.4-1-0.7-1.6-1c-1.7-0.7-3.7-0.8-5.5-0.2
	c-0.6,0.2-1.1,0.6-1.6,1.1c-0.4,0.5-0.7,1.1-0.8,1.7c-0.2,0.7-0.2,1.4-0.2,2.1v2.1h5.3c1.5,0,2.3,0.7,2.3,2.1c0,0.5-0.1,0.9-0.2,1.3
	c-0.1,0.3-0.2,0.5-0.3,0.8h-7.2v20h-5v-20L971.4,188.9z M997.4,188.9v12.4c0,1.6,0.3,2.7,1,3.3c0.8,0.6,1.8,0.9,2.9,0.9
	c0.5,0,1-0.1,1.4-0.2c0.4-0.1,0.8-0.2,1.2-0.4c0.3-0.1,0.6-0.3,0.9-0.4l0.5-0.3l1.9,3.1l-0.7,0.6c-0.4,0.3-0.9,0.6-1.4,0.8
	c-0.7,0.3-1.4,0.5-2.1,0.7c-0.9,0.2-1.8,0.3-2.8,0.3c-1.2,0-2.4-0.2-3.6-0.6c-1.8-0.7-3.3-2.1-3.9-4c-0.3-1-0.5-2-0.5-3v-13h-2.2
	c-1.5,0-2.3-0.7-2.3-2.1c0-0.5,0.1-0.9,0.2-1.3c0.2-0.4,0.3-0.6,0.3-0.7h3.9v-5.2c0-0.6,0.2-1.3,0.7-1.7c0.6-0.4,1.2-0.6,1.9-0.6
	c0.5,0,1,0.1,1.5,0.2c0.4,0.1,0.7,0.2,0.9,0.3v7h6.1c1.5,0,2.3,0.7,2.3,2.1c0,0.4-0.1,0.9-0.2,1.3c-0.1,0.4-0.2,0.6-0.3,0.8
	L997.4,188.9z M1008.8,190c-0.2-0.4-0.3-0.9-0.5-1.4c-0.2-0.5-0.2-1-0.2-1.4c-0.1-1.2,0.9-2.3,2.1-2.4c0.2,0,0.3,0,0.5,0
	c0.5,0,1,0,1.5,0.2l0.6,0.2c0.5,1.7,0.9,3.4,1.5,5.2c0.5,1.8,1.1,3.5,1.6,5.2s1,3.2,1.5,4.7s0.9,2.7,1.2,3.6
	c0.7-1.9,1.4-4.2,2.2-6.9c0.8-2.7,1.7-5.9,2.9-9.8c0.2-0.8,0.5-1.4,1.1-1.9c0.6-0.4,1.3-0.6,2.1-0.6c0.5,0,1.1,0.1,1.6,0.2
	c0.3,0.1,0.5,0.2,0.8,0.4c0.5,1.7,1,3.4,1.5,5.2s1,3.5,1.5,5.2s1,3.2,1.4,4.6s0.8,2.6,1.2,3.6c0.4-1,0.8-2.3,1.3-3.8s1-3.1,1.5-4.7
	s1-3.2,1.5-4.7s0.9-2.8,1.2-3.8c0.2-0.6,0.5-1.2,0.9-1.6c0.6-0.4,1.3-0.6,2-0.6c0.6,0,1.2,0.1,1.8,0.4c0.3,0.2,0.5,0.3,0.8,0.5
	c-0.3,1.1-0.7,2.5-1.3,4.4s-1.3,3.9-2.1,6.1s-1.6,4.4-2.5,6.6s-1.7,4.3-2.5,6.1h-5.3c-0.3-0.7-0.6-1.8-1.1-3.3s-1-3.1-1.6-4.8
	s-1.1-3.4-1.6-5.1s-0.9-3-1.2-4.1c-0.3,1.1-0.7,2.6-1.2,4.2s-1,3.4-1.6,5.1s-1,3.3-1.5,4.8s-0.8,2.5-1.1,3.2h-5.3
	c-0.8-1.9-1.5-3.8-2.3-5.9s-1.5-4-2.2-5.9l-1.7-4.6C1009.2,191.1,1008.9,190.3,1008.8,190L1008.8,190z M1065.4,197.6
	c-0.2-0.1-0.5-0.1-0.7-0.1l-1.4-0.1c-0.5,0-1.1-0.1-1.8-0.1s-1.2,0-1.8,0c-2.4,0-4.1,0.4-5.2,1.1c-1.1,0.8-1.7,2.1-1.6,3.4
	c0,0.6,0.1,1.2,0.3,1.8c0.2,0.6,0.5,1,1,1.4c0.6,0.4,1.3,0.7,2.1,0.9c1.1,0.2,2.2,0.3,3.3,0.3c1.3,0,2.6,0,3.8-0.2
	c0.6-0.1,1.3-0.2,1.9-0.3L1065.4,197.6z M1058.2,187.8c-0.8,0-1.7,0.1-2.5,0.2c-0.6,0.1-1.3,0.3-1.9,0.6c-0.5,0.2-0.9,0.4-1.3,0.7
	l-0.9,0.6c-0.4-0.3-0.7-0.6-0.9-1c-0.3-0.4-0.4-0.9-0.4-1.4c0-0.5,0.1-1,0.5-1.4c0.3-0.4,0.8-0.7,1.2-0.9c0.7-0.3,1.5-0.6,2.3-0.7
	c1.2-0.3,2.4-0.4,3.6-0.4c1.7,0,3.5,0.2,5.2,0.5c1.4,0.3,2.7,0.9,3.9,1.8c1.1,0.8,1.9,1.9,2.5,3.2c0.6,1.5,0.9,3.2,0.9,4.8v14.4
	c-0.6,0.1-1.8,0.3-3.6,0.5c-2.4,0.2-4.8,0.3-7.2,0.3c-2,0.1-3.9-0.2-5.8-0.6c-1.3-0.3-2.5-0.9-3.5-1.7c-0.8-0.6-1.4-1.5-1.7-2.5
	c-0.3-0.9-0.4-1.9-0.4-2.9c0-1.1,0.2-2.3,0.6-3.4c0.4-1,1-1.9,1.9-2.5c1-0.7,2.2-1.3,3.4-1.6c1.7-0.4,3.5-0.6,5.3-0.6
	c1.4,0,2.7,0,3.9,0.1s2,0.1,2.3,0.2v-0.2c0-0.5,0-1-0.1-1.4c-0.2-1.4-0.9-2.6-2.1-3.4C1061.7,188.1,1059.9,187.7,1058.2,187.8
	L1058.2,187.8z M1088,188.2c-0.7,0-1.4,0-2.1,0.2c-0.5,0.1-1,0.2-1.6,0.4c-0.3,0.1-0.7,0.3-1,0.4l-0.5,0.3v19.4h-4.9v-21.9
	c0.3-0.2,0.6-0.4,0.9-0.6c0.6-0.4,1.3-0.7,2-1c1-0.4,2-0.7,3-0.9c1.3-0.3,2.6-0.4,3.9-0.4c1.1,0,2.1,0.1,3.1,0.2
	c0.7,0.1,1.4,0.3,2,0.6c0.8,0.3,1.3,1.1,1.3,2c0,0.5-0.1,1.1-0.4,1.5c-0.2,0.3-0.4,0.6-0.7,0.9c-0.6-0.3-1.2-0.6-1.9-0.7
	C1090.1,188.3,1089,188.2,1088,188.2L1088,188.2z M1119.3,193.2c0.1,1.6-0.5,3.2-1.5,4.4c-1,1.1-2.8,1.6-5.2,1.6h-11.2
	c0.2,1.8,1.1,3.5,2.5,4.7c1.6,1.2,3.6,1.7,5.6,1.6c1.5,0,3-0.1,4.5-0.6c0.8-0.2,1.6-0.5,2.4-0.9l1.5,3.6c-0.2,0.1-0.5,0.3-1,0.5
	c-0.6,0.3-1.3,0.5-1.9,0.7c-0.9,0.2-1.8,0.4-2.7,0.6c-1.1,0.2-2.2,0.3-3.4,0.3c-1.7,0-3.4-0.2-5-0.8c-1.5-0.5-2.8-1.3-4-2.3
	c-1.2-1.1-2.1-2.4-2.7-3.9c-0.7-1.7-1-3.6-1-5.5c0-1.8,0.3-3.6,0.9-5.4c0.6-1.6,1.5-3,2.6-4.2c1.1-1.2,2.5-2.1,4-2.7
	c1.6-0.7,3.3-1,5.1-1c1.6,0,3.1,0.2,4.6,0.7c1.2,0.4,2.4,1.1,3.3,1.9c0.9,0.8,1.6,1.8,2,2.9C1119.1,190.6,1119.3,191.9,1119.3,193.2
	L1119.3,193.2z M1114.5,192.7c0-0.6-0.1-1.2-0.3-1.8c-0.2-0.6-0.5-1.2-1-1.6c-0.5-0.5-1.2-0.9-1.8-1.2c-0.9-0.3-1.8-0.5-2.7-0.5
	c-1.1,0-2.2,0.2-3.2,0.7c-0.9,0.5-1.7,1.1-2.3,1.9c-0.6,0.8-1.1,1.6-1.4,2.6c-0.3,0.9-0.5,1.9-0.5,2.8h10.1c0.9,0.1,1.8-0.1,2.5-0.6
	C1114.3,194.4,1114.6,193.6,1114.5,192.7L1114.5,192.7z"/>
</svg>
