<svg xmlns="http://www.w3.org/2000/svg" viewBox="0 0 748 486"><defs><style>.a{fill:#ff7626;}</style></defs><path d="M176.52,433.39h17.67c4.45,0,7.89,1.49,10.09,4.1a12.27,12.27,0,0,1,2.85,8.07c0,7.78-4.45,12.47-13.71,12.47H181.86v17.82h-5.34Zm5.34,20.31H193c6,0,8.84-3,8.84-7.9,0-5.1-3.15-7.78-8.55-7.78H181.86Z"/><path d="M219.35,450.25h.11a10.91,10.91,0,0,1,9.14-5.46,4.61,4.61,0,0,1,2,.36v4.63h-.18a5.77,5.77,0,0,0-2.14-.3c-4.74,0-8.89,3.57-8.89,9.32v17.05h-4.81v-30.7h4.81Z"/><path d="M235,460.53c0-8.91,5.69-16.15,14.83-16.15s14.77,7.24,14.77,16.15-5.58,16.15-14.77,16.15S235,469.43,235,460.53Zm24.67,0c0-6.77-3.32-12.18-9.84-12.18s-9.91,5.41-9.91,12.18,3.38,12.11,9.91,12.11S259.62,467.3,259.62,460.53Z"/><path d="M291.83,475.85v-4.22h-.12c-2.19,3-4.8,4.93-9.25,4.93-6.29,0-10.32-3.8-10.32-10.16V445.15h4.8v21.14c0,4,2.55,6.29,6.88,6.29,4.87,0,8-3.68,8-8.55V445.15h4.81v30.7Z"/><path d="M304.41,460.59c0-10.22,5.87-16.15,13.46-16.15a11.32,11.32,0,0,1,9.61,5h.12V433.39h4.81v42.46H327.6v-3.74h-.12a11.13,11.13,0,0,1-9.49,4.63C309.63,476.74,304.41,470.44,304.41,460.59Zm23.49.06c0-7.13-3.44-12.12-9.79-12.12-5.81,0-8.78,5.23-8.78,12.12s3,12.05,8.84,12.05C325,472.7,327.9,467.59,327.9,460.65Z"/><path d="M342.08,433.39h4.8v42.46h-4.8Z"/><path d="M356.13,485.35v-4.28h.24a6.69,6.69,0,0,0,3.26.65c2,0,3.38-.77,4.57-3.74l1.19-3-12-29.81h5.22l7.23,19.12c.95,2.55,2.08,6,2.08,6h.12s1.06-3.45,2-6l7-19.12h5.1l-13.11,33.19c-2.49,6.35-4.86,7.66-8.6,7.66A10.68,10.68,0,0,1,356.13,485.35Z"/><path d="M400.92,445.15h4.8v4.33h.12a11.53,11.53,0,0,1,9.85-5c7.77,0,13.17,5.93,13.17,16.15,0,9.85-5,16.15-13.35,16.15-4.15,0-7.12-1.25-9.67-4.52h-.12V485.7h-4.8Zm23,15.5c0-6.89-2.9-12.12-8.72-12.12-6.7,0-9.78,5.47-9.78,12.12s2.67,12.05,9.72,12.05C421,472.7,423.93,467.59,423.93,460.65Z"/><path d="M455.43,471.57h-.06a12.3,12.3,0,0,1-10.2,4.87c-5.81,0-10.38-2.73-10.38-8.55,0-7.24,5.69-8.73,13.35-9.92,4.33-.65,7.35-1.07,7.35-4.39s-2.49-5.4-6.88-5.4c-5,0-7.47,2.13-7.65,6.77h-4.63c.18-5.94,4.09-10.4,12.22-10.4,6.53,0,11.33,2.44,11.33,9.74V468.9c0,2.49.59,3.86,3.26,3.27h.18v3.5a6.51,6.51,0,0,1-2.61.47C457.57,476.14,455.91,474.72,455.43,471.57Zm.12-7.07v-5.22a22.15,22.15,0,0,1-7,2.26c-4.8.89-8.66,1.72-8.66,6.23,0,4.1,3.2,5,6.35,5C452.64,472.76,455.55,468.07,455.55,464.5Z"/><path d="M474.65,450.25h.12a10.89,10.89,0,0,1,9.13-5.46,4.58,4.58,0,0,1,2,.36v4.63h-.18a5.71,5.71,0,0,0-2.13-.3c-4.75,0-8.9,3.57-8.9,9.32v17.05h-4.8v-30.7h4.8Z"/><path d="M491.2,445.15h4.45v-9.68h4.8v9.68h5.94v3.92h-5.94V469c0,2.14,1.13,2.85,3.09,2.85a9,9,0,0,0,2.55-.42h.18v4.16a18.58,18.58,0,0,1-3.86.41c-3.91,0-6.76-1.6-6.76-5.93v-21H491.2Z"/><path d="M525,460.53c0-8.91,5.7-16.15,14.83-16.15s14.77,7.24,14.77,16.15-5.57,16.15-14.77,16.15S525,469.43,525,460.53Zm24.68,0c0-6.77-3.32-12.18-9.85-12.18s-9.9,5.41-9.9,12.18,3.38,12.11,9.9,12.11S549.69,467.3,549.69,460.53Z"/><path d="M559.83,445.15H564v-4.93c0-5.28,3-7.18,8.13-7.18,1,0,1.78,0,2.43.11v4.1c-.83-.06-1.07-.06-1.54-.06-3.08,0-4.21.77-4.21,3.27v4.69h5.69v3.92h-5.69v26.78H564V449.07h-4.21Z"/><path d="M606.87,454.11l-13.64-20.72h6.17l10.5,17H610l10.74-17h5.87l-13.88,20.78L627,475.85h-6.41L609.72,458h-.12l-11.39,17.88h-6.05Z"/><path d="M630.3,460.53c0-8.91,5.82-16.15,14.54-16.15,9.19,0,14.11,7.12,14.11,17.27H635.23c.35,6.24,3.73,11,9.9,11,4.45,0,7.42-2.14,8.48-6.29h4.69c-1.42,6.59-6.23,10.33-13.17,10.33C635.76,476.68,630.3,469.43,630.3,460.53Zm5.05-2.5h18.44c-.29-6.11-3.44-9.85-8.95-9.85C639.14,448.18,636.06,452.45,635.35,458Z"/><path d="M671.53,471.81h-.12v4H666.6V433.39h4.81v16.15h.12a11.56,11.56,0,0,1,9.84-5.1c7.77,0,13,5.93,13,16.15,0,9.85-4.92,16.15-13.22,16.15A11,11,0,0,1,671.53,471.81Zm18-11.16c0-6.89-2.79-12.12-8.6-12.12-6.7,0-9.79,5.47-9.79,12.12,0,6.88,3.21,12.05,9.73,12.05C686.71,472.7,689.5,467.59,689.5,460.65Z"/><path d="M702.2,433.39H707v5.94h-4.8Zm0,11.76H707v30.7h-4.8Z"/><path d="M735.29,471.57h-.06a12.29,12.29,0,0,1-10.2,4.87c-5.81,0-10.38-2.73-10.38-8.55,0-7.24,5.7-8.73,13.35-9.92,4.33-.65,7.35-1.07,7.35-4.39s-2.49-5.4-6.88-5.4c-5,0-7.47,2.13-7.65,6.77h-4.63c.18-5.94,4.1-10.4,12.22-10.4,6.53,0,11.33,2.44,11.33,9.74V468.9c0,2.49.6,3.86,3.27,3.27h.17v3.5a6.51,6.51,0,0,1-2.61.47C737.43,476.14,735.77,474.72,735.29,471.57Zm.12-7.07v-5.22a22.15,22.15,0,0,1-7,2.26c-4.8.89-8.66,1.72-8.66,6.23,0,4.1,3.21,5,6.35,5C732.51,472.76,735.41,468.07,735.41,464.5Z"/><rect class="a" x="597" y="4.99" width="151" height="247.72"/><path d="M6.08,255.65H32.54a53,53,0,0,1-1.34-12V139.58H62.41q44.79,0,69.3-21.86Q152.88,99.33,152.82,69c0-25.15-11-43.5-33-54.84C105.86,7,90.42,3.4,73.32,3.4H6.08A57.07,57.07,0,0,1,7.41,15.67v228A53.6,53.6,0,0,1,6.08,255.65Zm25.23-241h34.8q28.74,0,45.52,15c11.23,10,16.79,23.6,16.79,40.82a60.59,60.59,0,0,1-9.07,32.37A48.71,48.71,0,0,1,96.7,122.36c-8.86,4-20.7,6-35.53,6H31.31Z"/><path d="M735.69,344.41a35.27,35.27,0,0,1,6.39.41V339a25.87,25.87,0,0,1-6.59.82h-37v-48h38.2a17.4,17.4,0,0,1,5.26.83v-5.88h-55.1a19.54,19.54,0,0,1,.62,5.47V395.23a32.8,32.8,0,0,1-.41,5.36h55V394.1c-3.19.51-5.36.72-6.28.82H698.62V344.41Z"/><path d="M51.08,341c-3.09-1.86-7.83-4.44-14.42-7.63-9.78-4.64-16.37-8.76-19.87-12.37a17.65,17.65,0,0,1-5.26-13A18.73,18.73,0,0,1,17,294.6c4.33-4.43,10.2-6.7,17.71-6.7,7.32,0,15.25,2.68,23.59,7.94l3-7.84a58.35,58.35,0,0,0-24.82-5.77c-13.9,0-24,4.43-30.48,13.19A25.54,25.54,0,0,0,.82,310.78a24.29,24.29,0,0,0,7.73,17.94c4,3.92,10.91,8.25,20.39,13,9.68,4.74,15.75,8,18.33,10.1,6.07,4.74,9.06,10.72,9.06,18a21.91,21.91,0,0,1-6.08,15.57c-4.84,5.05-11.53,7.63-20,7.63a35,35,0,0,1-20-6,73.15,73.15,0,0,1-7.21-5.57L0,390.88q14.67,8.5,29.66,8.35c14.93,0,25.74-5.26,32.44-15.57A29.69,29.69,0,0,0,67,367.27c0-7.73-2.88-14.53-8.44-20.41A41.51,41.51,0,0,0,51.08,341Z"/><path d="M544.05,289.67a10.53,10.53,0,0,1-.72-2.89h-10.1a19.79,19.79,0,0,1-.82,3.51L493.07,396.37c-.41,1-1.13,2.47-2.06,4.32h6.8a17.48,17.48,0,0,1,.62-4.32l13-34.44V362H560l13,34.43a15.92,15.92,0,0,1,.93,4.33H587.3a26,26,0,0,1-2.47-4.33ZM512.84,357.3,535,297.92l23,59.38Z"/><path d="M483.49,245.14a74.47,74.47,0,0,1-43.25-13.3c-4.32-3.09-9.58-7.22-15.55-12.37L417.9,240.4c21.21,12.37,42.63,18.65,64,18.65,32.23,0,55.5-11.54,70-34.43a66.47,66.47,0,0,0,10.71-36.18c0-17.11-6.07-32.06-18.12-45.15a78.69,78.69,0,0,0-16.27-13.09c-6.59-4-16.89-9.69-31.1-16.81C476.08,103,461.87,93.81,454.25,86a40.07,40.07,0,0,1-11.43-28.86,41.63,41.63,0,0,1,11.84-29.59c9.27-10,22-14.94,38.31-14.94q23.79,0,51,17.62l6.49-17.42C532.2,4.23,514.39,0,496.78,0q-45,0-65.91,29.17a57.15,57.15,0,0,0-11,34c0,15.46,5.56,28.66,16.68,39.79,8.86,8.66,23.59,18.15,44.18,28.66,20.81,10.41,34,17.94,39.44,22.37q19.47,15.62,19.47,39.89c0,13.51-4.33,24.95-13.08,34.44C516.24,239.57,501.82,245.14,483.49,245.14Z"/><path d="M296.79,258.85a181.94,181.94,0,0,0,37.28-3.51c11.22-2.26,26.88-6.9,46.86-14a41,41,0,0,1-2.48-13.6V129.78a69.8,69.8,0,0,1,1.14-11.85H303.28v8.56h51.49l.1,104.94a107,107,0,0,1-52.31,13.5,108.46,108.46,0,0,1-39.34-7q-28.28-11.28-42.84-36.8c-4.84-8.25-8.76-19-11.64-32.06a184.88,184.88,0,0,1-4.32-39.79c0-19.48,2.57-37.32,7.51-53.19,4.12-12.79,11.33-24.43,21.53-35,17.3-17.94,39.34-27,65.9-27,23.18,0,47.27,7.42,72.09,22.16V14.23C357.24,8.76,345.29,5.05,335.61,3a162.1,162.1,0,0,0-32.13-3c-35.32,0-63.64,9.38-85.16,28.25Q178,63.5,178.05,128.75q0,60.15,33.68,96.9Q242.47,258.76,296.79,258.85Z"/><path d="M498.73,286.78h-6.17a21.2,21.2,0,0,1-.72,4.23l-26,96.8L437.15,291a12.22,12.22,0,0,1-.72-3.71v-.62H425.31a5.77,5.77,0,0,1,.1,1.14,22.23,22.23,0,0,1-.72,3.71l-27.6,96.28L370.83,290.6c-.41-2-.72-3.09-.72-3.51v-.31H358.78c.52,1.65,1,3.2,1.45,4.75L388,394.92a22.52,22.52,0,0,1,.72,5.77h10.51a24.45,24.45,0,0,1,.72-4.32L427.88,299l28.63,96a31.16,31.16,0,0,1,.93,5.77h10.61c.41-1.95.72-3.4.92-4.32L497.29,291C498.12,288.85,498.53,287.4,498.73,286.78Z"/><path d="M134,282.43c-17.82.11-31.51,5.16-41.09,14.95-10.2,10.41-15.24,24.54-15.24,42.47,0,18.76,4.84,33.4,14.41,43.92s23.69,15.67,42.23,15.67c17.4,0,31-5.05,40.67-14.95,10.2-10.41,15.24-24.95,15.24-43.71s-5-33.09-15.24-43.4C165.18,287.38,151.48,282.43,134,282.43Zm33.26,96.49c-7.62,9.8-18.74,14.74-33.16,14.74-15.45,0-26.88-5.15-34.29-15.56-6.7-9.38-10-22.06-10-38,0-14.95,3.29-27,10-36.29,7.52-10.41,18.64-15.67,33.57-15.67,7.83,0,14.42,1.24,19.88,3.61a34.87,34.87,0,0,1,14,11c7.11,9,10.61,21.65,10.61,38C177.85,357,174.35,369.75,167.24,378.92Z"/><path d="M623.14,346.37c12.35-.72,21.72-3.71,28.11-8.76s9.58-12.17,9.58-21.14a26.82,26.82,0,0,0-5.26-16.39,28.77,28.77,0,0,0-12.77-9.79,50.69,50.69,0,0,0-19.66-3.61H597.29a24.65,24.65,0,0,1,.62,5.36V395.33a24.51,24.51,0,0,1-.62,5.36h12.25a24.51,24.51,0,0,1-.62-5.36v-49l45.32,49.79a18.48,18.48,0,0,1,3.29,4.53h17.1a20.85,20.85,0,0,1-5.15-4ZM608.92,342h-.1v-50.2H619c8.65,0,15.24,1.54,20,4.74a23.51,23.51,0,0,1,7.73,8.76,25.4,25.4,0,0,1,2.78,11.75c0,9.38-4.12,16.29-12.15,20.83A33.33,33.33,0,0,1,620.77,342Z"/><path d="M202.67,291.94V395.23a24.58,24.58,0,0,1-.62,5.36H214.3a24.58,24.58,0,0,1-.62-5.36V344.92h31.41a24.46,24.46,0,0,1,5.87.62v-5.87a28.06,28.06,0,0,1-5.66.62H213.68V291.73h36a43.13,43.13,0,0,1,6.38.52v-5.57H202.05A24.48,24.48,0,0,1,202.67,291.94Z"/><path d="M267.54,286.68v6.39a39.59,39.59,0,0,1,7.42-.72h28.32V395.23a24.58,24.58,0,0,1-.62,5.36h12.25a24.56,24.56,0,0,1-.61-5.36V292.35h27.49a50.44,50.44,0,0,1,7.73.72v-6.39h-82Z"/></svg>