<svg width="1139" height="155" viewBox="0 0 1139 155" xmlns="http://www.w3.org/2000/svg" xmlns:xlink="http://www.w3.org/1999/xlink">
    <defs>
        <path id="dy1wbq4hla" d="M0 0h23.834v139.126H0z"/>
        <path id="83lq5uj7sc" d="M0 148h1137V0H0z"/>
    </defs>
    <g fill="none" fill-rule="evenodd">
        <path fill="#046AB4" d="M46.82 140.21H26.683v-2.22h19.11l4.501-4.023h9.174v-15.923l9.19-8.212h30.4v2.221H69.685l-7.734 6.91v17.225h-10.63z"/>
        <path fill="#046AB4" d="M38.507 139.432h-2.486v-37.39h56.032v2.188H38.507zM99.836 101.263V148h2.474v-44.536h24.764v-2.2z"/>
        <path fill="#046AB4" d="m105.283 101.464 1.777 1.56 15.32-13.443 15.686 13.766h4.362v22.613h50.268l9.689 8.501V148h2.512v-14.453l-11.161-9.794h-48.795V101.14h-5.835L122.38 86.463z"/>
        <path fill="#046AB4" d="M171.433 117.621h-2.487v-15.163l-14.715-13.015h-22.488v-2.2h23.518l16.172 14.303zM43.22 103.6l-1.752-1.65 15.623-14.708h44.301v8.35h-2.477v-6.016H58.117zM108.293 89.579h-6.123v-2.212h3.702v-8.805l3.158-2.884v-8.621l4.719-4.741 4.72 4.74v8.622l3.157 2.884v4.998h-2.42v-4.082l-3.158-2.884v-8.683l-2.299-2.308-2.298 2.308v8.683l-3.158 2.884z"/>
        <path fill="#046AB4" d="m115.4 63.874-1.945-11.685-1.946 11.685zM181.55 124.632h-2.46v-35.11h-4.995v-10.08l-3.21-2.878V67.9l-2.338-2.303-2.337 2.303v8.665L163 79.442v6.524h-2.462v-7.439l3.211-2.877v-8.603l4.798-4.731 4.798 4.73v8.604l3.21 2.877v8.787h4.995z"/>
        <path fill="#046AB4" d="m166.764 63.874 1.945-11.685 1.946 11.685zM150.42 109.832H169.1v-2.337H150.42zM26.004 126.968v4.354H14.23V148h2.539v-14.53h11.774v-4.354h9.034v-2.148z"/>
        <path fill="#046AB4" d="M1 137.095V148h2.491v-8.561h12.295v-2.344zM37.577 112.947h19.456v-2.336H37.577zM71.041 123.074h2.335v-2.337H71.04zM82.715 123.074h2.334v-2.337h-2.334zM91.275 123.074h2.335v-2.337h-2.335zM71.041 132.421h2.335v-2.337H71.04zM82.715 132.421h2.334v-2.337h-2.334zM91.275 132.421h2.335v-2.337h-2.335zM71.041 142.547h2.335v-2.336H71.04zM82.715 142.547h2.334v-2.336h-2.334zM91.275 142.547h2.335v-2.336h-2.335zM112.287 123.074h2.335v-2.337h-2.335zM121.626 123.074h2.335v-2.337h-2.335zM158.203 118.4h2.335v-2.337h-2.335zM110.731 88.021h2.335v-5.453h-2.335zM167.542 88.021h2.335v-5.453h-2.335zM112.287 132.421h2.335v-2.337h-2.335zM121.626 132.421h2.335v-2.337h-2.335zM112.287 142.547h2.335v-2.336h-2.335zM121.626 142.547h2.335v-2.336h-2.335zM162.094 144.105h2.335v-2.337h-2.335zM171.433 95.81h2.335v-2.336h-2.335zM172.211 144.105h2.335v-2.337h-2.335zM183.107 144.105h2.334v-2.337h-2.334zM192.446 144.105h2.334v-2.337h-2.334z"/>
        <path fill="#046AB4" d="M148.394 136.316v2.603h-5.755V148h2.481v-6.811h5.756v-2.603h51.687v-2.27zM165.986 132.421h-3.572l-8.102-7.06 1.729-1.508 7.386 6.436h2.559zM178.437 132.421h-3.572l-8.101-7.06 1.729-1.508 7.386 6.436h2.558zM191.667 132.421h-3.57l-8.103-7.06 1.729-1.508 7.385 6.436h2.56zM110.731 109.832v2.202h22.43V148h2.473v-38.168zM143.417 103.6h17.121v-2.337h-17.121zM229.023 140.99h-2.5v-14.664l-5.806-4.995h-20.98l-5.524 4.752-1.767-1.522 6.255-5.382h23.05l7.272 6.255z"/>
        <path fill="#046AB4" d="M209.567 124.59V148h2.468v-22.482l6.092-5.532-1.745-1.586zM221.24 140.21v2.1h17.035V148h2.421v-7.79zM228.244 123.853v2.25h37.366v4.958h14.62V148h2.49v-19.189H268.1v-4.958z"/>
        <path fill="#046AB4" d="M238.361 132.421h20.234v-2.337h-20.234zM252.37 137.874h2.334v-1.558h-2.334zM261.708 137.874h2.335v-1.558h-2.335zM270.269 137.874h2.335v-1.558h-2.335zM252.37 144.105h2.334v-1.558h-2.334zM261.708 144.105h2.335v-1.558h-2.335zM270.269 144.105h2.335v-1.558h-2.335z"/>
        <g transform="translate(1)">
            <g transform="translate(497.381)">
                <mask id="srqvwj7h6b" fill="#fff">
                    <use xlink:href="#dy1wbq4hla"/>
                </mask>
                <path d="M10.091 139.126C-17.855 71.768 21.066 4.678 21.461 4.008L23.835 0v90.127h-2.516V9.509C13.3 25.495-10.985 81.864 12.453 138.356l-2.362.77z" fill="#046AB4" mask="url(#srqvwj7h6b)"/>
            </g>
            <path fill="#046AB4" d="M486.21 148h-2.516v-6.297h10.575v-4.077h19.125v2.23h-16.61v4.077H486.21z"/>
            <mask id="bxeglf9l1d" fill="#fff">
                <use xlink:href="#83lq5uj7sc"/>
            </mask>
            <path fill="#046AB4" mask="url(#bxeglf9l1d)" d="M518.7 138.74h2.515V115h-2.516zM540.342 139.126l-2.361-.77c23.45-56.52-.847-112.876-8.865-128.85v80.62H526.6V0l2.372 4.008c.396.67 39.317 67.76 11.37 135.118"/>
            <path fill="#046AB4" mask="url(#bxeglf9l1d)" d="M564.122 148h-2.517v-4.067h-10.574v-4.077h-16.61v-2.23h19.125v4.077h10.576zM526.6 138.74h2.515V115H526.6zM519.957 16.738h7.9V14.51h-7.9zM519.957 28.898h7.9v-2.23h-7.9zM518.868 134.238C493.04 94.608 506.844 31.73 506.987 31.1l2.466.437c-.14.622-13.756 62.69 11.593 101.586l-2.178 1.115z"/>
            <path d="m528.947 134.238-2.179-1.115c25.358-38.91 11.734-100.964 11.593-101.586l2.467-.437c.143.63 13.947 63.508-11.88 103.138" fill="#046AB4" mask="url(#bxeglf9l1d)"/>
            <path fill="#046AB4" mask="url(#bxeglf9l1d)" d="M547.43 110.766h-9.6l-8.956-7.934 3.647-3.231-4.341-3.844v-5.485h-13.528v7.106h-8.168v-2.23h5.652v-7.106h18.56v6.79l5.383 4.769-3.646 3.23 6.44 5.705h8.558zM524.105 109.472h-11.108l-6.206-5.497 1.778-1.577 5.47 4.844h10.066zM295.936 134.703h-2.516v-13.836l-4.892-4.333H277.74l-3.483 3.086H258.25l-7.175 6.355-1.779-1.576 7.913-7.01h16.006l3.482-3.085h12.875l6.365 5.64z"/>
            <path fill="#046AB4" mask="url(#bxeglf9l1d)" d="M290.417 135.818h14.768v-2.23h-14.768z"/>
            <path fill="#046AB4" mask="url(#bxeglf9l1d)" d="M306.443 148h-2.516v-45.929h78.379v2.23h-75.863z"/>
            <path fill="#046AB4" mask="url(#bxeglf9l1d)" d="M419.663 148h-2.515v-4.1h-20.785V98.994h-12.799V148h-2.516V96.764h17.83v44.906h20.785z"/>
            <path fill="#046AB4" mask="url(#bxeglf9l1d)" d="M397.621 104.301h7.93v-2.23h-7.93z"/>
            <path fill="#046AB4" mask="url(#bxeglf9l1d)" d="M406.81 122.94h-2.516V98.29h17.01v3.782h77.25v2.23h-79.766v-3.782H406.81zM333.19 148h2.515v-44.814h-2.516zM305.185 118.806h19.143v-2.23h-19.143z"/>
            <path fill="#046AB4" mask="url(#bxeglf9l1d)" d="M334.447 115.495h39.928v-2.23h-39.928zM418.788 133.68h2.516v-30.494h-2.516z"/>
            <path fill="#046AB4" mask="url(#bxeglf9l1d)" d="M420.046 114.768h71.925v-2.23h-71.925zM310.655 109.651h2.623v-2.324h-2.623zM317.547 109.651h2.623v-2.324h-2.623zM324.44 109.651h2.623v-2.324h-2.624zM310.655 126.223h2.623V123.9h-2.623zM317.547 126.223h2.623V123.9h-2.623zM324.44 126.223h2.623V123.9h-2.624zM310.655 132.473h2.623v-2.324h-2.623zM317.547 132.473h2.623v-2.324h-2.623zM324.44 132.473h2.623v-2.324h-2.624zM310.655 138.723h2.623V136.4h-2.623zM317.547 138.723h2.623V136.4h-2.623zM324.44 138.723h2.623V136.4h-2.624zM341.122 109.651h2.623v-2.324h-2.623zM341.122 126.223h2.623V123.9h-2.623zM341.122 132.473h2.623v-2.324h-2.623zM341.122 138.723h2.623V136.4h-2.623zM348.724 109.651h2.623v-2.324h-2.623zM348.724 126.223h2.623V123.9h-2.623zM348.724 132.473h2.623v-2.324h-2.623zM348.724 138.723h2.623V136.4h-2.623zM356.325 109.651h2.624v-2.324h-2.624zM356.325 126.223h2.624V123.9h-2.624zM356.325 132.473h2.624v-2.324h-2.624zM356.325 138.723h2.624V136.4h-2.624zM363.927 109.651h2.624v-2.324h-2.624zM363.927 126.223h2.624V123.9h-2.624zM363.927 132.473h2.624v-2.324h-2.624zM363.927 138.723h2.624V136.4h-2.624zM371.529 109.651h2.623v-2.324h-2.623zM371.529 126.223h2.623V123.9h-2.623zM371.529 132.473h2.623v-2.324h-2.623zM371.529 138.723h2.623V136.4h-2.623zM427.44 109.651h2.624v-2.324h-2.624zM427.44 126.223h2.624V123.9h-2.624zM427.44 132.473h2.624v-2.324h-2.624zM437.331 109.651h2.623v-2.324h-2.623zM437.331 132.473h2.623v-2.324h-2.623zM437.331 138.723h2.623V136.4h-2.623zM447.222 109.651h2.623v-2.324h-2.623zM447.222 126.223h2.623V123.9h-2.623zM447.222 132.473h2.623v-2.324h-2.623zM447.222 138.723h2.623V136.4h-2.623zM457.112 109.651h2.624v-2.324h-2.624zM457.112 126.223h2.624V123.9h-2.624zM457.112 132.473h2.624v-2.324h-2.624zM457.112 138.723h2.624V136.4h-2.624zM467.003 109.651h2.624v-2.324h-2.624zM467.003 126.223h2.624V123.9h-2.624zM467.003 132.473h2.624v-2.324h-2.624zM467.003 138.723h2.624V136.4h-2.624zM476.894 109.651h2.623v-2.324h-2.623zM476.894 126.223h2.623V123.9h-2.623zM476.894 132.473h2.623v-2.324h-2.623zM486.785 109.651h2.623v-2.324h-2.623zM486.785 126.223h2.623V123.9h-2.623zM486.785 132.473h2.623v-2.324h-2.623zM411.678 142.819h2.516v-35.493h-2.516zM557.497 117.26h-2.516v-10.374h-6.973v-2.23h9.489z"/>
            <path fill="#046AB4" mask="url(#bxeglf9l1d)" d="M551.042 118.374h13.948v-2.23h-13.948z"/>
            <path fill="#046AB4" mask="url(#bxeglf9l1d)" d="M566.248 135.187h-2.517v-28.356h19.734v2.23h-17.217z"/>
            <path fill="#046AB4" mask="url(#bxeglf9l1d)" d="M610.826 148h-2.517v-7.882h-12.251v3.815h-23.576v-7.63h-12.354v-2.23H575v7.63h18.542v-3.814h17.285zM570.021 126.87h2.517v-18.924h-2.517zM724.046 142.818h-2.517v-28.05H586.107v12.102h-2.517v-14.332h140.456z"/>
            <path fill="#046AB4" mask="url(#bxeglf9l1d)" d="M736.079 143.933H621.875v-2.23h111.687v-9.106h10.83v2.23h-8.313zM650.971 128.235h2.517v-14.582h-2.517zM594.417 113.653H591.9V80.482l.685-.31c.468-.214 11.585-5.213 20.537-5.213h83.303v38.559h-2.517V77.189h-80.786c-7.135 0-16.176 3.599-18.705 4.67v31.794z"/>
            <path fill="#046AB4" mask="url(#bxeglf9l1d)" d="M611.863 102.24h2.517V76.073h-2.517zM621.874 82.024h73.293v-1.239h-73.293zM621.874 87.354h73.293v-1.239h-73.293zM621.874 92.683h73.293v-1.238h-73.293zM621.874 98.013h73.293v-1.238h-73.293zM621.874 103.343h73.293v-1.238h-73.293zM593.159 84.823h13.4v-1.238h-13.4zM593.159 90.153h13.4v-1.238h-13.4zM593.159 95.482h13.4v-1.238h-13.4zM593.159 100.813h13.4v-1.239h-13.4zM593.159 106.143h13.4v-1.239h-13.4zM616.513 135.187h2.517v-21.534h-2.517z"/>
            <path fill="#046AB4" mask="url(#bxeglf9l1d)" d="M593.159 119.575h48.679v-1.238h-48.68zM658.52 119.575h64.268v-1.238H658.52zM593.159 124.518h48.679v-1.238h-48.68zM658.52 124.518h64.268v-1.238H658.52zM593.766 133.711h2.188v-4.237h-2.188zM600.467 133.711h2.188v-4.237h-2.188zM607.167 133.711h2.188v-4.237h-2.188zM626.143 133.711h2.188v-4.237h-2.188zM632.843 133.711h2.188v-4.237h-2.188zM639.543 133.711h2.188v-4.237h-2.188zM660.571 133.711h7.39v-4.237h-7.39zM683.2 133.711h7.388v-4.237H683.2zM705.827 133.711h7.389v-4.237h-7.389zM626.143 139.62h2.188v-2.118h-2.188zM632.843 139.62h2.188v-2.118h-2.188zM639.543 139.62h2.188v-2.118h-2.188zM660.571 139.62h7.39v-2.118h-7.39zM683.2 139.62h7.388v-2.118H683.2zM705.827 139.62h7.389v-2.118h-7.389zM771.358 129.474h-2.517V109.06h-44.795v4.592h-2.517v-6.822h49.83z"/>
            <path fill="#046AB4" mask="url(#bxeglf9l1d)" d="M817.576 148h-2.517v-17.412h-69.408V148h-2.518v-19.642h74.443zM759.27 124.42h2.516v-16.474h-2.517zM729.625 122.66h5.29v-8.82h-5.29zM739.15 122.66h5.29v-8.82h-5.29zM748.673 122.66h5.291v-8.82h-5.29z"/>
            <path fill="#046AB4" mask="url(#bxeglf9l1d)" d="M751.318 138.122h41.753v-1.238h-41.753zM751.318 141.567h41.753v-1.238h-41.753zM751.318 145.012h41.753v-1.238h-41.753zM838.36 129.474h-2.517v-14.706h-6.563v-3.42h-14.22v-2.287h-31.395v3.257h-4.376v17.156h-2.517v-19.385h4.376v-3.258h36.429v2.288h14.22v3.42h6.563z"/>
            <path fill="#046AB4" mask="url(#bxeglf9l1d)" d="M793.072 114.913h4.359v-2.23h-4.359zM793.072 119.67h4.359v-2.23h-4.359zM793.072 124.427h4.359v-2.23h-4.359zM800.636 114.913h4.358v-2.23h-4.358zM800.636 119.67h4.358v-2.23h-4.358zM800.636 124.427h4.358v-2.23h-4.358zM808.327 114.913h2.18v-2.23h-2.18zM808.327 119.67h2.18v-2.23h-2.18zM808.327 124.427h2.18v-2.23h-2.18zM819.877 119.67h2.18v-2.23h-2.18zM819.877 124.427h2.18v-2.23h-2.18zM825.073 119.67h2.18v-2.23h-2.18zM825.073 124.427h2.18v-2.23h-2.18zM782.953 119.67h2.18v-2.23h-2.18zM782.953 124.427h2.18v-2.23h-2.18zM788.15 119.67h2.179v-2.23h-2.18zM788.15 124.427h2.179v-2.23h-2.18zM887.314 148h-2.517v-17.412h-61.369v-2.23h63.886z"/>
            <path fill="#046AB4" mask="url(#bxeglf9l1d)" d="M827.912 141.593h2.518v-12.12h-2.518zM835.843 141.593h2.517v-12.12h-2.517zM843.774 141.593h2.517v-12.12h-2.517zM851.706 141.593h2.517v-12.12h-2.517zM859.637 141.593h2.517v-12.12h-2.517zM867.568 141.593h2.517v-12.12h-2.517zM875.499 141.593h2.517v-12.12h-2.517zM783.665 107.946h-2.517V85.62h2.726V70.518h20.2v4.441h13.502v25.234h-2.517V77.19h-13.503v-4.442h-15.165V87.85h-2.726z"/>
            <path fill="#046AB4" mask="url(#bxeglf9l1d)" d="M854.223 85.765h-2.517v-5.722h-28.91l-5.588 4.95-1.78-1.577 6.324-5.603h32.471z"/>
            <path fill="#046AB4" mask="url(#bxeglf9l1d)" d="M848.48 124.42h-2.518V86.88h-7.766v-2.23h10.283z"/>
            <path fill="#046AB4" mask="url(#bxeglf9l1d)" d="M900.715 128.235h-2.518V86.88h-14.495v-6.905h-18.867l-7.794 6.905h-9.82v-2.23h8.777l7.794-6.905h22.427v6.905h14.496z"/>
            <path fill="#046AB4" mask="url(#bxeglf9l1d)" d="M863.055 124.427h2.517V78.86h-2.517z"/>
            <path fill="#046AB4" mask="url(#bxeglf9l1d)" d="M857.613 93.179h6.7v-2.23h-6.7zM884.688 93.179h4.102v-2.23h-4.102zM857.613 99.962h6.7v-2.23h-6.7zM884.688 99.962h4.102v-2.23h-4.102zM857.613 106.746h6.7v-2.23h-6.7zM884.688 106.746h4.102v-2.23h-4.102zM857.613 113.53h6.7v-2.23h-6.7zM884.688 113.53h4.102v-2.23h-4.102zM857.613 120.313h6.7v-2.23h-6.7zM841.683 93.179h5.537v-2.23h-5.537zM841.683 99.962h5.537v-2.23h-5.537zM841.683 106.746h5.537v-2.23h-5.537zM824.487 93.179h12.615v-2.23h-12.615zM824.487 99.962h12.615v-2.23h-12.615zM841.683 113.53h5.537v-2.23h-5.537zM841.683 120.313h5.537v-2.23h-5.537zM884.688 120.313h4.102v-2.23h-4.102zM789.972 82.89h13.624v-1.782h-13.624zM789.972 87.892h13.624v-1.781h-13.624zM789.972 92.894h13.624v-1.781h-13.624zM789.972 97.897h13.624v-1.782h-13.624zM789.972 102.899h13.624v-1.782h-13.624zM807.23 82.89h3.276v-1.782h-3.276zM790.329 77.856h3.276v-1.782h-3.276zM829.157 85.28h3.276V83.5h-3.276zM807.23 87.892h3.276v-1.781h-3.276zM807.23 92.894h3.276v-1.781h-3.276zM807.23 97.897h3.276v-1.782h-3.276zM807.23 102.899h3.276v-1.782h-3.276zM948.3 148h-2.518v-4.188h-16.134V129.35h-31.942v13.359h-11.65v-2.23h9.133V127.12h36.976v14.463h16.134z"/>
            <path fill="#046AB4" mask="url(#bxeglf9l1d)" d="M996.979 148h-2.517v-21.389h-4.923v-5.826h-67.493v7.45h-2.517v-9.68h72.527v5.827h4.923z"/>
            <path fill="#046AB4" mask="url(#bxeglf9l1d)" d="M941.133 135.534h2.517V119.67h-2.517zM948.53 135.534h1.398v-9.553h-1.398zM955.367 135.534h1.398v-9.553h-1.398zM962.203 135.534h1.398v-9.553h-1.398zM969.04 135.534h1.399v-9.553h-1.398zM975.878 135.534h1.398v-9.553h-1.398zM982.714 135.534h1.398v-9.553h-1.398zM962.203 144.393h1.398v-4.775h-1.398zM969.04 144.393h1.399v-4.775h-1.398zM975.878 144.393h1.398v-4.775h-1.398zM982.714 144.393h1.398v-4.775h-1.398zM903.01 136.399h2.462v-4.119h-2.461zM909.574 136.399h2.461v-4.119h-2.46zM916.138 136.399h2.461v-4.119h-2.461zM922.701 136.399h2.461v-4.119h-2.46zM903.01 144.878h2.462v-4.119h-2.461zM909.574 144.878h2.461v-4.119h-2.46zM916.138 144.878h2.461v-4.119h-2.461zM922.701 144.878h2.461v-4.119h-2.46zM987.68 119.67h-2.517V72.78h11.925v2.229h-9.408z"/>
            <path fill="#046AB4" mask="url(#bxeglf9l1d)" d="M1035.54 141.594h-2.518V54.9h-7.265l-27.41 9.106v47.438h-2.518V62.462l29.472-9.791h10.238z"/>
            <path fill="#046AB4" mask="url(#bxeglf9l1d)" d="m997.53 75.422-.884-2.087 28.656-9.52h8.979v2.23h-8.523z"/>
            <path fill="#046AB4" mask="url(#bxeglf9l1d)" d="M1026.788 139.852h-19.308v-2.23h16.79V53.786h2.518zM1053.862 148h-2.517V63.381h-17.064v-2.23h19.58z"/>
            <path fill="#046AB4" mask="url(#bxeglf9l1d)" d="M1120.865 148h-2.517V86.88h-65.745v-2.23h68.262z"/>
            <path fill="#046AB4" mask="url(#bxeglf9l1d)" d="M1137 148h-2.517v-17.412h-5.47V116.92h-9.406v-2.23h11.923v13.668h5.47zM1098.9 148h2.518V85.765h-2.517zM1017.308 131.903h1.398V56.285h-1.398zM1012.798 131.903h1.398V58.762h-1.398zM1039.993 72.871h2.052v-3.795h-2.052zM1039.993 81.997h2.052V78.2h-2.052zM1039.993 91.122h2.052v-3.796h-2.052zM1039.993 100.247h2.052v-3.795h-2.052zM1039.993 109.373h2.052v-3.796h-2.052zM1039.993 118.498h2.052v-3.796h-2.052zM1039.993 127.623h2.052v-3.795h-2.052zM1039.993 136.748h2.052v-3.795h-2.052zM1006.454 81.652h2.051v-3.796h-2.05zM1006.454 90.777h2.051V86.98h-2.05zM1006.454 99.902h2.051v-3.795h-2.05zM1006.454 109.028h2.051v-3.796h-2.05zM1006.454 118.153h2.051v-3.796h-2.05zM1006.454 127.278h2.051v-3.796h-2.05zM1045.6 72.871h2.051v-3.795h-2.051zM1045.6 81.997h2.051V78.2h-2.051zM1045.6 91.122h2.051v-3.796h-2.051zM1045.6 100.247h2.051v-3.795h-2.051zM1045.6 109.373h2.051v-3.796h-2.051zM1045.6 118.498h2.051v-3.796h-2.051zM1045.6 127.623h2.051v-3.795h-2.051zM1045.6 136.748h2.051v-3.795h-2.051zM1074.824 95.685h2.051v-3.796h-2.051zM1074.824 104.81h2.051v-3.796h-2.051zM1074.824 113.935h2.051v-3.795h-2.051zM1074.824 123.06h2.051v-3.795h-2.051zM1074.824 132.186h2.051v-3.796h-2.051zM1074.824 141.311h2.051v-3.795h-2.051zM1080.43 95.685h2.052v-3.796h-2.052zM1080.43 104.81h2.052v-3.796h-2.052zM1080.43 113.935h2.052v-3.795h-2.052zM1080.43 123.06h2.052v-3.795h-2.052zM1080.43 132.186h2.052v-3.796h-2.052zM1080.43 141.311h2.052v-3.795h-2.052zM1106.753 95.685h2.05v-3.796h-2.05zM1106.753 104.81h2.05v-3.796h-2.05zM1106.753 113.935h2.05v-3.795h-2.05zM1106.753 123.06h2.05v-3.795h-2.05zM1106.753 132.186h2.05v-3.796h-2.05zM1106.753 141.311h2.05v-3.795h-2.05zM1112.36 95.685h2.05v-3.796h-2.05zM1112.36 104.81h2.05v-3.796h-2.05zM1112.36 113.935h2.05v-3.795h-2.05zM1112.36 123.06h2.05v-3.795h-2.05zM1112.36 132.186h2.05v-3.796h-2.05zM1112.36 141.311h2.05v-3.795h-2.05zM1005.756 60.123h1.397V47.972h-1.397z"/>
        </g>
        <path stroke="#046AB4" stroke-width="2" stroke-linecap="square" d="M1 154h1137"/>
    </g>
</svg>
