<svg width="200" height="37" viewBox="0 0 200 37" xmlns="http://www.w3.org/2000/svg">
    <g fill-rule="nonzero" fill="none">
        <path d="M39.903 5.28C36.383 1.874 31.703 0 26.726 0c-4.978 0-9.657 1.875-13.177 5.28C11.44 7.317 9.9 9.76 9.005 12.423c-.02.057.024.114.086.114h2.279a.09.09 0 0 0 .084-.056 15.675 15.675 0 0 1 3.744-5.608c2.836-2.743 6.532-4.351 10.5-4.588 4.873-.291 9.647 1.548 12.973 5.004 2.079 2.16 3.463 4.791 4.047 7.636l.114.074c.602-.124 1.597-.328 2.092-.426l.076-.111c-.712-3.457-2.46-6.636-5.096-9.185v.001z" fill="#046AB4"/>
        <g fill="#474646">
            <path d="M57.953 26.048c-1.235-.635-2.202-1.522-2.902-2.664-.7-1.14-1.051-2.435-1.051-3.883 0-1.449.35-2.743 1.05-3.884.701-1.14 1.668-2.029 2.903-2.664 1.234-.636 2.62-.953 4.16-.953 1.414 0 2.675.246 3.785.738a7.018 7.018 0 0 1 2.746 2.131l-3.1 2.726c-.9-1.12-1.961-1.68-3.182-1.68-1.027 0-1.851.324-2.476.972-.624.65-.936 1.52-.936 2.613 0 1.092.312 1.964.936 2.613.624.648 1.45.973 2.476.973 1.22 0 2.28-.56 3.183-1.68l3.099 2.725a7.007 7.007 0 0 1-2.746 2.13c-1.11.493-2.371.739-3.785.739-1.54 0-2.926-.317-4.16-.953v.001zM82.54 23.067h-1.332v3.607H76.3V12.328h7.01c1.345 0 2.517.219 3.516.656.998.437 1.768 1.066 2.309 1.885.54.82.811 1.776.811 2.87 0 1.024-.236 1.92-.707 2.684-.472.765-1.152 1.373-2.039 1.823l3.058 4.427h-5.242l-2.476-3.607zm1.954-6.568c-.332-.294-.832-.441-1.497-.441h-1.789v3.361h1.789c.665 0 1.165-.146 1.497-.44.333-.295.5-.707.5-1.24s-.167-.946-.5-1.24zM107.957 24.173h-5.532l-.978 2.5h-4.992l6.365-14.344h4.825l6.365 14.345h-5.075l-.978-2.5zm-1.351-3.484-1.415-3.606-1.415 3.606h2.829zM125.95 15.976v2.459h6.074v3.648h-6.074v4.59h-4.91V12.328h11.836v3.648h-6.926zM143.942 16.078h-4.264v-3.75h13.438v3.75h-4.265v10.595h-4.909V16.078zM159.543 19.009h6.24v3.484h-6.24zM174.145 12.328h4.91v14.345h-4.91zM190.827 16.078h-4.264v-3.75H200v3.75h-4.264v10.595h-4.91V16.078z"/>
        </g>
        <g fill="#474646">
            <path d="m45.883 12.139-1.98-.01-2.002-.014s-.003-.002-.003-.004L19.704 12a.115.115 0 0 0-.08.032v9.924c.753.2 1.43.555 1.902 1.18 1.102 1.462 1.135 2.653.377 4.216l-.06.12c-.024.019-.168.13-.193.147-1.155.754-1.896.66-3.346 1.29-.776.337-1.207.663-1.31.743-.468.36-.79.732-.994.997A16.418 16.418 0 0 0 22.012 34c.091-.224.203-.201.745-.395a15.014 15.014 0 0 1 10.044-.018c.124-.05.248-.1.372-.152a16.418 16.418 0 0 0 5.196-3.481c.12-.12.365-.409.482-.532-.568-.201-.692-.32-1.26-.42a9.278 9.278 0 0 1-3.225-1.224 4.5 4.5 0 0 1-.427-.32l-.034-.06c-2.808-5.183 3.295-10.104 8.643-11.494l.898-.2c.37-.07.734-.121 1.088-.152C45.898 15.386 46 13.377 46 12.253a.115.115 0 0 0-.115-.115h-.002z"/>
            <path d="M16.99 21.728v.256c0 .066.056.12.123.12h2.103V13.07c-.657.133-1.635.091-2.017.128-.114.012-.21.094-.21.208v8.324h.001z"/>
        </g>
        <path d="M11.357 20.402c1.559.413 3.107.613 4.643.597v-7.701c-1.53.064-3.176.09-4.937.08l-1.327-.016c-2.442-.04-5.091-.15-7.95-.327C.21 12.937-.87 12.93.95 14.598c2.47 2.079 4.912 3.65 7.329 4.717" fill="#474646"/>
        <path d="M44.052 16.354a5.25 5.25 0 0 1-.732.056c-.175 0-.537.066-.714.1.054.534.07.999.07 1.577 0 4.42-1.687 8.575-4.75 11.7-3.063 3.126-7.135 4.847-11.467 4.847-4.33 0-8.403-1.721-11.466-4.846a16.556 16.556 0 0 1-4.552-9.119c-.926-.348-1.095-.4-2.441-.897.383 4.41 2.25 8.52 5.354 11.688C16.855 35.033 21.509 37 26.46 37c4.951 0 9.605-1.967 13.106-5.54 3.502-3.573 5.43-8.322 5.43-13.374 0-.59.017-1.39-.018-2.018-.003-.069-.09-.093-.128-.037-.114.17-.578.292-.797.322l-.001.001z" fill="#046AB4"/>
    </g>
</svg>
